<svg width="29" height="23" viewBox="0 0 29 23" fill="none" xmlns="http://www.w3.org/2000/svg">
<path d="M2 4.77778C2 4.04107 2.29266 3.33453 2.81359 2.81359C3.33453 2.29266 4.04107 2 4.77778 2H24.2222C24.9589 2 25.6655 2.29266 26.1864 2.81359C26.7073 3.33453 27 4.04107 27 4.77778V18.6667C27 19.4034 26.7073 20.1099 26.1864 20.6309C25.6655 21.1518 24.9589 21.4444 24.2222 21.4444H4.77778C4.04107 21.4444 3.33453 21.1518 2.81359 20.6309C2.29266 20.1099 2 19.4034 2 18.6667V4.77778Z" stroke="white" stroke-width="3" stroke-linecap="round" stroke-linejoin="round"/>
<path d="M2 4.77783L14.5 13.1112L27 4.77783" stroke="white" stroke-width="3" stroke-linecap="round" stroke-linejoin="round"/>
</svg>
