<svg width="32" height="32" viewBox="0 0 32 32" fill="none" xmlns="http://www.w3.org/2000/svg">
<mask id="mask0_1615_107" style="mask-type:alpha" maskUnits="userSpaceOnUse" x="0" y="0" width="32" height="32">
<rect width="32" height="32" fill="white"/>
</mask>
<g mask="url(#mask0_1615_107)">
<path fill-rule="evenodd" clip-rule="evenodd" d="M26.4374 28.1272C29.8435 25.1931 32 20.8484 32 16C32 11.1516 29.8435 6.80693 26.4374 3.87276V3.77151C26.4374 3.77151 24.2146 1.82896 20.9052 0.732103V0.765911C19.3594 0.268591 17.7111 9.97187e-10 16 9.97187e-10C14.5257 9.97187e-10 13.098 0.199393 11.7424 0.572682V0.5C8.65793 1.44151 7.18308 2.29913 5.02974 4.35291C1.93314 7.27064 0 11.4096 0 16C0 24.8366 7.16344 32 16 32C18.453 32 20.7771 31.448 22.8547 30.4614C24.1049 29.8969 25.0977 29.2619 26.4374 28.1703V28.1272ZM26.4374 23.3902C27.9176 21.3034 28.7878 18.7533 28.7878 16C28.7878 13.2467 27.9176 10.6966 26.4374 8.60981V3.87276C24.8376 2.49468 22.9622 1.42775 20.9052 0.765911V4.18678C19.3946 3.55887 17.7378 3.21222 16 3.21222C14.5072 3.21222 13.0742 3.468 11.7424 3.93811V0.572682C9.1936 1.27452 6.89956 2.59108 5.02974 4.35291C5.01984 4.36235 5.00993 4.37181 5 4.3813V9.47481C3.86438 11.3851 3.21222 13.6164 3.21222 16C3.21222 18.3836 3.86438 20.6149 5 22.5252V27.5C7.36935 29.622 8.89906 30.4274 11.7424 31.3489V28.0619C13.0742 28.532 14.5072 28.7878 16 28.7878C17.7641 28.7878 19.4447 28.4306 20.9736 27.7845L21 31.2C21.7027 30.9454 22.3037 30.7102 22.8547 30.4614C24.1551 29.844 25.3589 29.0563 26.4374 28.1272V23.3902ZM26.4374 23.3902V8.60981C25.0549 6.66083 23.1402 5.11589 20.9052 4.18678V13.2354H11.7424V3.93811C8.89972 4.94152 6.51796 6.92138 5 9.47481V22.5252C6.51796 25.0786 8.89972 27.0585 11.7424 28.0619V18.9464H20.9052L20.9736 27.7845C23.1793 26.8525 25.069 25.3193 26.4374 23.3902Z" fill="black"/>
</g>
</svg>
