<svg width="101" height="101" viewBox="0 0 101 101" fill="none" xmlns="http://www.w3.org/2000/svg">
<path d="M100.842 89.031V11.2532C100.842 8.30638 99.6713 5.48023 97.5876 3.39649C95.5039 1.31275 92.6777 0.14212 89.7309 0.14212L11.9531 0.14212C9.00623 0.14212 6.18007 1.31275 4.09633 3.39649C2.0126 5.48023 0.841965 8.30638 0.841965 11.2532L0.841965 89.031C0.841965 91.9779 2.0126 94.804 4.09633 96.8877C6.18007 98.9715 9.00623 100.142 11.9531 100.142H89.7309C92.6777 100.142 95.5039 98.9715 97.5876 96.8877C99.6713 94.804 100.842 91.9779 100.842 89.031Z" fill="#3178C6"/>
<path d="M45.2864 50.1421V83.4754" stroke="white" stroke-width="7" stroke-linecap="round" stroke-linejoin="round"/>
<path d="M67.5086 80.6977C69.2864 82.4755 71.6975 83.4755 74.2142 83.4755H77.2308C81.0642 83.4755 84.1753 80.3643 84.1753 76.531V75.1421C84.1753 72.932 83.2973 70.8124 81.7345 69.2496C80.1717 67.6868 78.0521 66.8088 75.842 66.8088C73.6318 66.8088 71.5122 65.9308 69.9494 64.368C68.3866 62.8052 67.5086 60.6856 67.5086 58.4755V57.0866C67.5086 53.2532 70.6197 50.1421 74.4531 50.1421H77.4697C79.9864 50.1421 82.3975 51.1421 84.1753 52.9199" stroke="white" stroke-width="7" stroke-linecap="round" stroke-linejoin="round"/>
<path d="M34.1753 50.1421H56.3975" stroke="white" stroke-width="7" stroke-linecap="round" stroke-linejoin="round"/>
</svg>
