<svg width="129" height="122" viewBox="0 0 129 122" fill="none" xmlns="http://www.w3.org/2000/svg">
<g filter="url(#filter0_d_1649_1077)">
<path d="M111.44 104.502L124.577 27.8414C125.074 24.9369 124.398 21.9536 122.696 19.5479C120.994 17.1421 118.406 15.511 115.502 15.0133L38.8414 1.87666C35.9369 1.37894 32.9536 2.05542 30.5479 3.75727C28.1421 5.45913 26.511 8.04697 26.0133 10.9515L12.8767 87.6118C12.3789 90.5164 13.0554 93.4996 14.7573 95.9054C16.4591 98.3111 19.047 99.9423 21.9515 100.44L98.6118 113.577C101.516 114.074 104.5 113.398 106.905 111.696C109.311 109.994 110.942 107.406 111.44 104.502Z" fill="#3178C6"/>
<path d="M63.2509 56.7883L57.6209 89.6427" stroke="white" stroke-width="7" stroke-linecap="round" stroke-linejoin="round"/>
<path d="M79.993 90.6582C81.445 92.7107 83.6526 94.1036 86.1331 94.5286L89.1064 95.0381C92.8847 95.6856 96.4765 93.1446 97.124 89.3664L97.3586 87.9974C97.7319 85.8191 97.2245 83.5816 95.9481 81.7773C94.6717 79.973 92.7308 78.7496 90.5525 78.3763C88.3741 78.0031 86.4332 76.7797 85.1568 74.9754C83.8804 73.1711 83.373 70.9336 83.7463 68.7552L83.9809 67.3863C84.6284 63.608 88.2202 61.0671 91.9985 61.7145L94.9718 62.2241C97.4523 62.6491 99.6599 64.042 101.112 66.0945" stroke="white" stroke-width="7" stroke-linecap="round" stroke-linejoin="round"/>
<path d="M52.2994 54.9116L74.2024 58.665" stroke="white" stroke-width="7" stroke-linecap="round" stroke-linejoin="round"/>
</g>
<defs>
<filter id="filter0_d_1649_1077" x="-4.00001" y="0" width="132.736" height="123.453" filterUnits="userSpaceOnUse" color-interpolation-filters="sRGB">
<feFlood flood-opacity="0" result="BackgroundImageFix"/>
<feColorMatrix in="SourceAlpha" type="matrix" values="0 0 0 0 0 0 0 0 0 0 0 0 0 0 0 0 0 0 127 0" result="hardAlpha"/>
<feOffset dy="4"/>
<feGaussianBlur stdDeviation="2"/>
<feComposite in2="hardAlpha" operator="out"/>
<feColorMatrix type="matrix" values="0 0 0 0 0.192157 0 0 0 0 0.470588 0 0 0 0 0.776471 0 0 0 0.25 0"/>
<feBlend mode="normal" in2="BackgroundImageFix" result="effect1_dropShadow_1649_1077"/>
<feBlend mode="normal" in="SourceGraphic" in2="effect1_dropShadow_1649_1077" result="shape"/>
</filter>
</defs>
</svg>
