<svg width="109" height="96" viewBox="0 0 109 96" fill="none" xmlns="http://www.w3.org/2000/svg">
<g filter="url(#filter0_d_1649_1064)">
<path d="M86.6151 28.8014C85.5604 28.4499 84.5057 28.1179 83.451 27.8054C83.6268 27.0827 83.7831 26.36 83.9393 25.6374C86.3416 13.9968 84.7596 4.64129 79.4276 1.55536C74.2909 -1.39386 65.912 1.67254 57.4354 9.05536C56.5955 9.77801 55.7752 10.5397 54.994 11.3015C54.4666 10.7936 53.9198 10.2858 53.3729 9.79755C44.4862 1.90692 35.5799 -1.41339 30.2479 1.69208C25.1307 4.66083 23.6073 13.4694 25.7557 24.485C25.9706 25.5788 26.2049 26.653 26.4784 27.7468C25.2284 28.0983 23.9979 28.4889 22.8456 28.8991C12.4159 32.5124 4.93539 38.2155 4.93539 44.1139C4.93539 50.2077 12.9041 56.321 23.744 60.0319C24.6229 60.3249 25.5018 60.6179 26.4002 60.8718C26.1073 62.0436 25.8534 63.196 25.619 64.3874C23.5682 75.2272 25.1698 83.821 30.287 86.7702C35.5604 89.8171 44.4276 86.6921 53.0604 79.1335C53.744 78.528 54.4276 77.903 55.1112 77.2389C55.9706 78.0788 56.869 78.8796 57.7674 79.6608C66.1268 86.8483 74.3885 89.7585 79.4862 86.8093C84.7596 83.7624 86.4784 74.5241 84.2518 63.2741C84.076 62.4147 83.8807 61.5358 83.6659 60.6374C84.2909 60.4616 84.8963 60.2663 85.5018 60.071C96.7713 56.3405 104.935 50.3054 104.935 44.1139C104.935 38.196 97.2401 32.4538 86.6151 28.8014ZM60.1893 12.2194C67.4549 5.8913 74.2323 3.41083 77.3182 5.18817C80.619 7.0827 81.8885 14.7389 79.8182 24.7975C79.6815 25.4616 79.5448 26.1061 79.369 26.7507C75.0331 25.7741 70.6385 25.071 66.2245 24.6804C63.6854 21.0475 60.912 17.571 57.9041 14.3093C58.6659 13.5866 59.4081 12.903 60.1893 12.2194ZM37.5916 54.2507C38.5877 55.9499 39.6034 57.6491 40.6776 59.3093C37.6307 58.9772 34.6034 58.4889 31.6151 57.8444C32.4745 55.0319 33.5487 52.1218 34.7987 49.153C35.6971 50.8718 36.6151 52.571 37.5916 54.2507ZM31.6737 30.7546C34.4862 30.1296 37.4745 29.6218 40.5799 29.2311C39.5448 30.8522 38.5291 32.5124 37.5721 34.1921C36.6151 35.8522 35.6776 37.5514 34.7987 39.2702C33.5682 36.36 32.533 33.5085 31.6737 30.7546ZM37.0252 44.2116C38.3143 41.5163 39.7206 38.8796 41.2049 36.2819C42.6893 33.6843 44.2909 31.1647 45.9706 28.6843C48.9002 28.4694 51.8885 28.3522 54.9354 28.3522C57.9823 28.3522 60.9901 28.4694 63.9002 28.6843C65.5604 31.1452 67.1424 33.6647 68.6463 36.2429C70.1502 38.821 71.5565 41.4577 72.8846 44.1335C71.576 46.8288 70.1698 49.485 68.6659 52.1022C67.1815 54.6999 65.5995 57.2194 63.9393 59.7194C61.0291 59.9343 58.0018 60.0319 54.9354 60.0319C51.869 60.0319 48.9002 59.9343 46.0291 59.7585C44.3299 57.278 42.7284 54.7389 41.2245 52.1413C39.7206 49.5436 38.3338 46.9069 37.0252 44.2116ZM72.2987 54.2116C73.2948 52.4929 74.2323 50.7546 75.1502 48.9968C76.4002 51.8288 77.494 54.6999 78.451 57.6491C75.4237 58.3327 72.3573 58.86 69.2713 59.2116C70.326 57.571 71.3221 55.8913 72.2987 54.2116ZM75.1112 39.2702C74.1932 37.5514 73.2557 35.8327 72.2791 34.153C71.3221 32.4929 70.326 30.8522 69.2909 29.2311C72.4354 29.6218 75.4432 30.1491 78.2557 30.7936C77.3573 33.6843 76.3026 36.4968 75.1112 39.2702ZM54.9745 17.2975C57.0252 19.5241 58.9588 21.8679 60.7557 24.2897C56.8885 24.114 53.0018 24.114 49.1346 24.2897C51.0487 21.7702 53.0213 19.4265 54.9745 17.2975ZM32.3182 5.32489C35.5995 3.41083 42.8846 6.1452 50.5604 12.9421C51.0487 13.3718 51.537 13.8405 52.0448 14.3093C49.0174 17.571 46.2245 21.0475 43.6659 24.6804C39.2518 25.071 34.8768 25.7546 30.5409 26.7116C30.287 25.7155 30.0721 24.6999 29.8573 23.6843C28.0213 14.2311 29.2323 7.10223 32.3182 5.32489ZM27.5331 56.8093C26.7127 56.5749 25.912 56.321 25.1112 56.0475C20.951 54.7389 16.2245 52.6686 12.8065 49.9538C10.8338 48.5866 9.50571 46.4772 9.13461 44.1139C9.13461 40.5397 15.3065 35.9694 24.2127 32.8639C25.326 32.4733 26.4588 32.1218 27.5916 31.7897C28.9198 36.028 30.5213 40.1882 32.3768 44.2116C30.5018 48.2936 28.8807 52.5124 27.5331 56.8093ZM50.3065 75.9499C47.0838 78.8991 43.3534 81.2429 39.2909 82.8444C37.1229 83.8796 34.6229 83.9772 32.3963 83.0983C29.2909 81.3014 28.0018 74.4069 29.7596 65.1296C29.9745 64.0358 30.2088 62.9421 30.4823 61.8679C34.8573 62.8054 39.2713 63.4499 43.744 63.7819C46.3221 67.4342 49.1541 70.9304 52.1815 74.2116C51.5565 74.8171 50.9315 75.403 50.3065 75.9499ZM55.0916 71.2038C53.0995 69.0554 51.1073 66.6725 49.1737 64.1139C51.0487 64.1921 52.9823 64.2311 54.9354 64.2311C56.9471 64.2311 58.9198 64.1921 60.8729 64.0944C59.076 66.5749 57.1424 68.9382 55.0916 71.2038ZM80.619 77.0632C80.4432 79.446 79.2713 81.6725 77.3963 83.1764C74.2909 84.9733 67.6698 82.6296 60.5213 76.4968C59.701 75.7936 58.8807 75.0319 58.0409 74.2507C61.0291 70.9499 63.7831 67.4538 66.2831 63.7819C70.7557 63.4108 75.2088 62.7272 79.6034 61.7311C79.7987 62.5319 79.9745 63.3327 80.1307 64.1139C81.0877 68.3327 81.244 72.7272 80.619 77.0632ZM84.1737 56.0671C83.6268 56.2429 83.0799 56.4186 82.5135 56.5749C81.1463 52.3171 79.4666 48.1569 77.5331 44.1139C79.4081 40.1296 80.9901 36.028 82.3182 31.8288C83.3338 32.1218 84.3104 32.4343 85.2479 32.7468C94.3495 35.8718 100.736 40.5202 100.736 44.0749C100.736 47.903 93.9198 52.8444 84.1737 56.0671ZM54.9354 53.1374C59.8768 53.1374 63.8807 49.1335 63.8807 44.1921C63.8807 39.2507 59.8768 35.2468 54.9354 35.2468C49.994 35.2468 45.9901 39.2507 45.9901 44.1921C45.9901 49.1335 49.994 53.1374 54.9354 53.1374Z" fill="#4FC0FF"/>
</g>
<defs>
<filter id="filter0_d_1649_1064" x="0.935394" y="0.444519" width="108" height="95.5047" filterUnits="userSpaceOnUse" color-interpolation-filters="sRGB">
<feFlood flood-opacity="0" result="BackgroundImageFix"/>
<feColorMatrix in="SourceAlpha" type="matrix" values="0 0 0 0 0 0 0 0 0 0 0 0 0 0 0 0 0 0 127 0" result="hardAlpha"/>
<feOffset dy="4"/>
<feGaussianBlur stdDeviation="2"/>
<feComposite in2="hardAlpha" operator="out"/>
<feColorMatrix type="matrix" values="0 0 0 0 0.309804 0 0 0 0 0.752941 0 0 0 0 1 0 0 0 0.25 0"/>
<feBlend mode="normal" in2="BackgroundImageFix" result="effect1_dropShadow_1649_1064"/>
<feBlend mode="normal" in="SourceGraphic" in2="effect1_dropShadow_1649_1064" result="shape"/>
</filter>
</defs>
</svg>
